<svg width="17" height="18" viewBox="0 0 17 18" fill="none" xmlns="http://www.w3.org/2000/svg">
<g clip-path="url(#clip0_90_678)">
<path d="M3.1607 7.95876C4.71162 8.69538 6.38416 9.11076 8.092 9.17584C8.10508 9.17642 8.11814 9.17411 8.13035 9.16904C8.14256 9.16398 8.15368 9.15627 8.163 9.1464C8.17232 9.13653 8.17965 9.12471 8.18453 9.11167C8.18942 9.09863 8.19175 9.08466 8.19139 9.07061L8.16654 7.99061C8.16533 7.9454 8.1517 7.90154 8.12731 7.86441C8.10292 7.82728 8.06884 7.79848 8.02923 7.78153C7.73893 7.6583 7.55062 7.39107 7.55062 7.06015C7.55149 5.71707 7.55105 4.38738 7.54931 3.07107C7.548 2.60446 7.76639 2.44661 8.08547 2.19876C8.143 2.15353 8.17177 2.09261 8.17177 2.01599L8.177 0.722764C8.177 0.709555 8.17453 0.696477 8.16971 0.684291C8.1649 0.672105 8.15785 0.661052 8.14897 0.651777C8.14008 0.642501 8.12955 0.635187 8.11798 0.630259C8.1064 0.625331 8.09402 0.622888 8.08154 0.623072C7.43293 0.639687 6.66923 0.649379 6.069 0.86261C5.12747 1.19584 4.44921 1.87107 4.03423 2.8883C3.62536 3.88799 3.35467 4.97769 3.22216 6.15738C3.16462 6.66692 3.1049 7.19446 3.043 7.74C3.03775 7.78485 3.04637 7.83035 3.06756 7.86975C3.08876 7.90915 3.12141 7.94036 3.1607 7.95876Z" stroke="#396819" stroke-width="2"/>
<path d="M8.84642 9.19939C10.519 9.12739 12.2229 8.70923 13.7581 7.95462C13.8479 7.91031 13.8889 7.836 13.881 7.7317C13.8095 6.84093 13.6923 5.93723 13.5293 5.02062C13.1893 3.11954 12.4046 1.03016 10.328 0.714464C9.83634 0.639695 9.33288 0.606464 8.81765 0.614772C8.79221 0.615136 8.76793 0.626091 8.75006 0.645267C8.7322 0.664443 8.72218 0.690297 8.72218 0.717233L8.71826 2.04508C8.71826 2.09862 8.73788 2.14246 8.77711 2.17662C9.07919 2.43416 9.35903 2.56708 9.35903 3.042C9.35816 4.41277 9.35598 5.71893 9.35249 6.96046C9.35118 7.42016 9.15895 7.61539 8.80326 7.82446C8.75008 7.85585 8.72349 7.90385 8.72349 7.96846L8.72218 9.07339C8.72217 9.09041 8.72541 9.10726 8.73172 9.12292C8.73802 9.13858 8.74726 9.15272 8.75887 9.1645C8.77048 9.17628 8.78422 9.18544 8.79927 9.19143C8.81432 9.19743 8.83035 9.20014 8.84642 9.19939Z" stroke="#801207" stroke-width="2"/>
<path d="M8.76485 3.00105C8.76489 2.97523 8.76013 2.94966 8.75084 2.92578C8.74155 2.90191 8.7279 2.88021 8.71069 2.86192C8.69348 2.84363 8.67303 2.82911 8.65052 2.81919C8.62801 2.80927 8.60387 2.80414 8.57948 2.80409L8.3284 2.80362C8.30402 2.80357 8.27986 2.80862 8.25732 2.81845C8.23477 2.82829 8.21427 2.84274 8.197 2.86097C8.17973 2.87919 8.16601 2.90084 8.15664 2.92468C8.14727 2.94852 8.14243 2.97408 8.14239 2.9999L8.13574 7.03189C8.1357 7.05771 8.14046 7.08329 8.14975 7.10716C8.15904 7.13103 8.17269 7.15273 8.1899 7.17102C8.20711 7.18931 8.22756 7.20383 8.25007 7.21375C8.27258 7.22367 8.29672 7.22881 8.32111 7.22885L8.57218 7.22932C8.59657 7.22937 8.62073 7.22433 8.64327 7.21449C8.66582 7.20465 8.68632 7.1902 8.70359 7.17197C8.72086 7.15375 8.73458 7.1321 8.74395 7.10826C8.75332 7.08442 8.75816 7.05886 8.7582 7.03304L8.76485 3.00105Z" stroke="#808080" stroke-width="2"/>
<path d="M3.69818 8.86985C3.48721 8.78769 3.27449 8.69308 3.06003 8.586C3.05335 8.58281 3.04604 8.5814 3.03873 8.58192C3.03142 8.58244 3.02435 8.58486 3.01814 8.58897C3.01193 8.59308 3.00677 8.59876 3.00313 8.60548C2.99949 8.61221 2.99747 8.61979 2.99726 8.62754C2.99028 9.42785 2.97895 10.1723 2.96326 10.8609C2.91226 13.0015 3.7008 15.0411 5.42564 16.1848C6.93385 17.1835 8.45818 17.4295 9.99864 16.9228C12.3551 16.1488 13.8341 14.1023 13.9387 11.4632C13.9718 10.6288 13.9588 9.69323 13.8995 8.65662C13.8951 8.59016 13.8642 8.56985 13.8066 8.5957C10.5126 10.0842 7.07987 10.1894 3.69818 8.86985Z" stroke="#808080" stroke-width="2"/>
<path d="M14.5164 11.5629C14.4406 13.5692 13.5318 15.4814 11.9521 16.5988C10.2024 17.8366 8.39906 18.1181 6.54214 17.4434C5.66163 17.124 4.89488 16.6385 4.24191 15.9868C2.77599 14.5232 2.28953 12.5086 2.36668 10.3555C2.43991 8.28553 2.55499 6.33045 2.94468 4.47092C3.43506 2.13092 4.5806 0.153685 7.03122 0.0844545C7.85942 0.0613775 8.73819 0.0553775 9.66753 0.0664544C11.3004 0.0858391 12.4756 0.815993 13.1931 2.25692C13.6708 3.21599 14.0021 4.35507 14.1869 5.67415C14.4781 7.75107 14.5879 9.71399 14.5164 11.5629ZM3.16045 7.95876C4.71137 8.69538 6.38391 9.11076 8.09176 9.17584C8.10484 9.17642 8.11789 9.17411 8.1301 9.16904C8.14232 9.16398 8.15343 9.15627 8.16275 9.1464C8.17207 9.13653 8.1794 9.12471 8.18429 9.11167C8.18917 9.09863 8.1915 9.08466 8.19114 9.07061L8.16629 7.99061C8.16508 7.9454 8.15145 7.90154 8.12706 7.86441C8.10267 7.82727 8.06859 7.79847 8.02899 7.78153C7.73868 7.6583 7.55037 7.39107 7.55037 7.06015C7.55124 5.71707 7.55081 4.38738 7.54906 3.07107C7.54776 2.60445 7.76614 2.44661 8.08522 2.19876C8.14276 2.15353 8.17153 2.09261 8.17153 2.01599L8.17676 0.722762C8.17676 0.709553 8.17428 0.696475 8.16947 0.684289C8.16465 0.672103 8.1576 0.661051 8.14872 0.651775C8.13984 0.642499 8.1293 0.635185 8.11773 0.630257C8.10615 0.62533 8.09377 0.622886 8.08129 0.62307C7.43268 0.639685 6.66899 0.649378 6.06876 0.862608C5.12722 1.19584 4.44896 1.87107 4.03399 2.8883C3.62512 3.88799 3.35442 4.97769 3.22191 6.15738C3.16437 6.66692 3.10465 7.19445 3.04276 7.73999C3.03751 7.78485 3.04612 7.83034 3.06731 7.86974C3.08851 7.90914 3.12117 7.94036 3.16045 7.95876ZM8.84629 9.19938C10.5188 9.12738 12.2228 8.70922 13.758 7.95461C13.8478 7.9103 13.8888 7.83599 13.8809 7.73169C13.8094 6.84092 13.6922 5.93722 13.5291 5.02061C13.1891 3.11953 12.4045 1.03015 10.3279 0.714454C9.83622 0.639685 9.33276 0.606454 8.81753 0.614762C8.79209 0.615126 8.76781 0.626082 8.74994 0.645258C8.73208 0.664434 8.72206 0.690287 8.72206 0.717224L8.71814 2.04507C8.71814 2.09861 8.73776 2.14245 8.77699 2.17661C9.07906 2.43415 9.35891 2.56707 9.35891 3.04199C9.35804 4.41276 9.35586 5.71892 9.35237 6.96045C9.35106 7.42015 9.15883 7.61538 8.80314 7.82445C8.74996 7.85584 8.72337 7.90384 8.72337 7.96845L8.72206 9.07338C8.72205 9.0904 8.72529 9.10725 8.7316 9.12291C8.7379 9.13857 8.74714 9.15271 8.75875 9.16449C8.77036 9.17627 8.7841 9.18543 8.79915 9.19143C8.81419 9.19742 8.83023 9.20013 8.84629 9.19938ZM8.76462 3.00104C8.76466 2.97522 8.7599 2.94964 8.75061 2.92577C8.74131 2.9019 8.72767 2.8802 8.71046 2.86191C8.69325 2.84362 8.6728 2.8291 8.65029 2.81917C8.62777 2.80925 8.60364 2.80412 8.57925 2.80407L8.32817 2.8036C8.30379 2.80356 8.27963 2.8086 8.25708 2.81844C8.23454 2.82828 8.21404 2.84272 8.19677 2.86095C8.1795 2.87918 8.16578 2.90083 8.15641 2.92467C8.14704 2.94851 8.1422 2.97407 8.14215 2.99989L8.13551 7.03187C8.13547 7.05769 8.14023 7.08327 8.14952 7.10714C8.15881 7.13101 8.17246 7.15271 8.18967 7.171C8.20688 7.18929 8.22733 7.20381 8.24984 7.21374C8.27235 7.22366 8.29649 7.22879 8.32088 7.22884L8.57195 7.22931C8.59634 7.22935 8.6205 7.22431 8.64304 7.21447C8.66559 7.20463 8.68608 7.19018 8.70336 7.17196C8.72063 7.15373 8.73435 7.13208 8.74372 7.10824C8.75309 7.0844 8.75793 7.05884 8.75797 7.03302L8.76462 3.00104ZM3.69791 8.86984C3.48694 8.78769 3.27422 8.69307 3.05976 8.58599C3.05308 8.5828 3.04577 8.5814 3.03846 8.58191C3.03115 8.58243 3.02408 8.58485 3.01787 8.58896C3.01165 8.59307 3.0065 8.59875 3.00286 8.60547C2.99921 8.6122 2.9972 8.61978 2.99699 8.62753C2.99001 9.42784 2.97868 10.1723 2.96299 10.8609C2.91199 13.0015 3.70053 15.0411 5.42537 16.1848C6.93358 17.1835 8.45791 17.4295 9.99837 16.9228C12.3548 16.1488 13.8338 14.1023 13.9384 11.4632C13.9716 10.6288 13.9585 9.69322 13.8992 8.65661C13.8949 8.59015 13.8639 8.56984 13.8064 8.59569C10.5123 10.0841 7.0796 10.1894 3.69791 8.86984Z" fill="black"/>
<path d="M8.092 9.17584C6.38416 9.11076 4.71162 8.69538 3.1607 7.95876C3.12141 7.94036 3.08876 7.90915 3.06756 7.86975C3.04637 7.83035 3.03775 7.78485 3.043 7.74C3.1049 7.19446 3.16462 6.66692 3.22216 6.15738C3.35467 4.97769 3.62536 3.888 4.03423 2.8883C4.44921 1.87107 5.12747 1.19584 6.069 0.86261C6.66923 0.649379 7.43293 0.639687 8.08154 0.623072C8.09402 0.622888 8.1064 0.625331 8.11798 0.630259C8.12955 0.635187 8.14008 0.642501 8.14897 0.651777C8.15785 0.661052 8.1649 0.672105 8.16971 0.684291C8.17453 0.696477 8.177 0.709555 8.177 0.722764L8.17177 2.016C8.17177 2.09261 8.143 2.15353 8.08547 2.19876C7.76639 2.44661 7.548 2.60446 7.54931 3.07107C7.55105 4.38738 7.55149 5.71707 7.55062 7.06015C7.55062 7.39107 7.73893 7.6583 8.02923 7.78153C8.06884 7.79848 8.10292 7.82728 8.12731 7.86441C8.1517 7.90154 8.16533 7.9454 8.16654 7.99061L8.19139 9.07061C8.19175 9.08466 8.18942 9.09863 8.18453 9.11167C8.17965 9.12471 8.17232 9.13653 8.163 9.1464C8.15368 9.15627 8.14256 9.16398 8.13035 9.16904C8.11814 9.17411 8.10508 9.17642 8.092 9.17584Z" fill="#72CF32"/>
<path d="M13.7581 7.95462C12.2229 8.70923 10.519 9.12739 8.84642 9.19939C8.83035 9.20014 8.81432 9.19743 8.79927 9.19143C8.78422 9.18544 8.77048 9.17628 8.75887 9.1645C8.74726 9.15272 8.73802 9.13858 8.73172 9.12292C8.72541 9.10726 8.72217 9.09041 8.72218 9.07339L8.72349 7.96846C8.72349 7.90385 8.75008 7.85585 8.80326 7.82446C9.15895 7.61539 9.35118 7.42016 9.35249 6.96046C9.35598 5.71893 9.35816 4.41277 9.35903 3.042C9.35903 2.56708 9.07919 2.43416 8.77711 2.17662C8.73788 2.14246 8.71826 2.09862 8.71826 2.04508L8.72218 0.717233C8.72218 0.690297 8.7322 0.664443 8.75006 0.645267C8.76793 0.626091 8.79221 0.615136 8.81765 0.614772C9.33288 0.606464 9.83634 0.639695 10.328 0.714464C12.4046 1.03016 13.1893 3.11954 13.5293 5.02062C13.6923 5.93723 13.8095 6.84093 13.881 7.7317C13.8889 7.836 13.8479 7.91031 13.7581 7.95462Z" fill="#FF230E"/>
<path d="M8.7582 7.03302C8.75816 7.05884 8.75332 7.0844 8.74395 7.10824C8.73458 7.13208 8.72086 7.15373 8.70359 7.17196C8.68632 7.19019 8.66582 7.20463 8.64327 7.21447C8.62073 7.22431 8.59657 7.22935 8.57219 7.22931L8.32111 7.22884C8.29672 7.22879 8.27258 7.22366 8.25007 7.21374C8.22756 7.20381 8.20711 7.18929 8.1899 7.171C8.17269 7.15271 8.15904 7.13101 8.14975 7.10714C8.14046 7.08327 8.1357 7.05769 8.13574 7.03187L8.14239 2.99989C8.14243 2.97407 8.14727 2.94851 8.15664 2.92467C8.16601 2.90083 8.17973 2.87918 8.197 2.86095C8.21427 2.84272 8.23477 2.82828 8.25732 2.81844C8.27986 2.8086 8.30402 2.80356 8.3284 2.8036L8.57948 2.80408C8.60387 2.80412 8.62801 2.80925 8.65052 2.81917C8.67303 2.8291 8.69348 2.84362 8.71069 2.86191C8.7279 2.8802 8.74155 2.9019 8.75084 2.92577C8.76013 2.94964 8.76489 2.97522 8.76485 3.00104L8.7582 7.03302Z" fill="white"/>
<path d="M3.69818 8.86985C7.07987 10.1894 10.5126 10.0842 13.8066 8.5957C13.8642 8.56985 13.8951 8.59016 13.8995 8.65662C13.9588 9.69323 13.9718 10.6288 13.9387 11.4632C13.8341 14.1023 12.3551 16.1488 9.99864 16.9228C8.45818 17.4295 6.93385 17.1835 5.42564 16.1848C3.7008 15.0411 2.91226 13.0015 2.96326 10.8609C2.97895 10.1723 2.99028 9.42785 2.99726 8.62754C2.99747 8.61979 2.99949 8.61221 3.00313 8.60548C3.00677 8.59876 3.01193 8.59308 3.01814 8.58897C3.02435 8.58486 3.03142 8.58244 3.03873 8.58192C3.04604 8.5814 3.05335 8.58281 3.06003 8.586C3.27449 8.69308 3.48721 8.78769 3.69818 8.86985Z" fill="white"/>
</g>
<defs>
<clipPath id="clip0_90_678">
<rect width="17" height="18" fill="white"/>
</clipPath>
</defs>
</svg>
